# xmcd
#
# Track frame offsets: 
#        150
#        33461
#        56954
#        75857
#        91223
#        106758
#        135524
#        162244
#        176621
#        207565
#        230856
#        252146
#        272679
#        301833
#
# Disc length: 4406 seconds
#
# Revision: 5
# Processed by: cddbd v1.5.2PL0 Copyright (c) Steve Scherf et al.
# Submitted via: ExactAudioCopy v1.0b3
#
DISCID=b511340e
DTITLE=Various Artist - Τα Blues Του Party [CD1)
DYEAR=2004
DGENRE=Blues
TTITLE0=The Moody Blues - Nights In White Satin
TTITLE1=Scorpions - Wind Of Change
TTITLE2=Gary Moore - Still Got The Blues (For You)
TTITLE3=Deep Purple - Soldier Of Fortune
TTITLE4=Kansas - Dust In The Wind
TTITLE5=Scorpions - Holiday
TTITLE6=Bryan Adams - Please Forgive Me
TTITLE7=Pavlov's Dog - Julia
TTITLE8=Barclays James Harvest - Poor Man's Moody Blues
TTITLE9=Sinead O' Connor - Nothing compares 2 U
TTITLE10=Rainbow - The Temple Of The King
TTITLE11=Marianne Faithfull - So Sad
TTITLE12=Scorpions - Still Loving You
TTITLE13=MSG - Nightmare
EXTD=By Pantelis
EXTT0=
EXTT1=
EXTT2=
EXTT3=
EXTT4=
EXTT5=
EXTT6=
EXTT7=
EXTT8=
EXTT9=
EXTT10=
EXTT11=
EXTT12=
EXTT13=
PLAYORDER=
